<mxfile host="app.diagrams.net" modified="2023-04-01T15:04:59.493Z" agent="5.0 (Windows NT 10.0; Win64; x64) AppleWebKit/537.36 (KHTML, like Gecko) Chrome/111.0.0.0 Safari/537.36 Edg/111.0.1661.62" etag="ERKkuEiLS9wgYeaG0rGc" version="21.0.6" type="github">
  <diagram name="第 1 页" id="Lpr0-biIK9KqR-987Yd4">
    <mxGraphModel dx="1359" dy="927" grid="1" gridSize="10" guides="0" tooltips="1" connect="1" arrows="1" fold="1" page="1" pageScale="1" pageWidth="1169" pageHeight="827" math="0" shadow="0">
      <root>
        <mxCell id="0" />
        <mxCell id="1" parent="0" />
        <mxCell id="TnbQVwUTKHEKqR5p2Ti1-1" value="&lt;font face=&quot;Verdana&quot; style=&quot;font-size: 16px;&quot;&gt;背包问题&lt;/font&gt;" style="rounded=1;whiteSpace=wrap;html=1;" vertex="1" parent="1">
          <mxGeometry x="70" y="270" width="150" height="100" as="geometry" />
        </mxCell>
        <mxCell id="TnbQVwUTKHEKqR5p2Ti1-3" value="" style="rounded=1;whiteSpace=wrap;html=1;" vertex="1" parent="1">
          <mxGeometry x="420" y="130" width="120" height="60" as="geometry" />
        </mxCell>
      </root>
    </mxGraphModel>
  </diagram>
</mxfile>
